<?xml version="1.0" encoding="UTF-8"?>
<!DOCTYPE svg PUBLIC "-//W3C//DTD SVG 1.1//EN" "http://www.w3.org/Graphics/SVG/1.1/DTD/svg11.dtd">
<!-- Creator: CorelDRAW X6 -->
<svg xmlns="http://www.w3.org/2000/svg" xml:space="preserve" width="100%" height="100%" version="1.1" style="shape-rendering:geometricPrecision; text-rendering:geometricPrecision; image-rendering:optimizeQuality; fill-rule:evenodd; clip-rule:evenodd"
viewBox="0 0 427 427"
 xmlns:xlink="http://www.w3.org/1999/xlink">
 <defs>
  <style type="text/css">
   <![CDATA[
    .fil0 {fill:#009FED;fill-rule:nonzero}
   ]]>
  </style>
 </defs>
 <g id="Layer_x0020_1">
  <metadata id="CorelCorpID_0Corel-Layer"/>
  <path class="fil0" d="M213 390c-97,0 -176,-79 -176,-176 0,-97 79,-176 176,-176 97,0 176,79 176,176 0,97 -79,176 -176,176zm0 -390c-118,0 -213,96 -213,213 0,118 96,213 213,213 118,0 213,-96 213,-213 0,-118 -96,-213 -213,-213zm55 322c0,0 -103,0 -103,0 0,0 0,-27 0,-27 0,0 9,0 9,0 15,1 16,-8 16,-10 0,0 0,-74 0,-74 0,-1 -1,-11 -16,-10 0,0 -9,0 -9,0 0,0 0,-27 0,-27 0,0 78,0 78,0 0,0 0,110 0,110 0,0 0,11 16,10 0,0 9,0 9,0 0,0 0,27 0,27zm-54 -230c17,0 31,14 31,31 0,17 -14,31 -31,31 -17,0 -31,-14 -31,-31 0,-17 14,-31 31,-31zm-1 -36c-87,0 -158,71 -158,158 0,87 71,158 158,158 87,0 158,-71 158,-158 0,-87 -71,-158 -158,-158z"/>
 </g>
</svg>
