<?xml version="1.0" encoding="UTF-8"?>
<!DOCTYPE svg PUBLIC "-//W3C//DTD SVG 1.1//EN" "http://www.w3.org/Graphics/SVG/1.1/DTD/svg11.dtd">
<!-- Creator: CorelDRAW X6 -->
<svg xmlns="http://www.w3.org/2000/svg" xml:space="preserve" width="100%" height="100%" version="1.1" style="shape-rendering:geometricPrecision; text-rendering:geometricPrecision; image-rendering:optimizeQuality; fill-rule:evenodd; clip-rule:evenodd"
viewBox="0 0 53 53"
 xmlns:xlink="http://www.w3.org/1999/xlink">
 <defs>
  <style type="text/css">
   <![CDATA[
    .fil0 {fill:#009FED;fill-rule:nonzero}
   ]]>
  </style>
 </defs>
 <g id="Layer_x0020_1">
  <metadata id="CorelCorpID_0Corel-Layer"/>
  <path class="fil0" d="M27 49c-12,0 -22,-10 -22,-22 0,-12 10,-22 22,-22 12,0 22,10 22,22 0,12 -10,22 -22,22zm0 -49c-15,0 -27,12 -27,27 0,15 12,27 27,27 15,0 27,-12 27,-27 0,-15 -12,-27 -27,-27zm7 40c0,0 -13,0 -13,0 0,0 0,-3 0,-3 0,0 1,0 1,0 2,0 2,-1 2,-1 0,0 0,-9 0,-9 0,0 0,-1 -2,-1 0,0 -1,0 -1,0 0,0 0,-3 0,-3 0,0 10,0 10,0 0,0 0,14 0,14 0,0 0,1 2,1 0,0 1,0 1,0 0,0 0,3 0,3zm-7 -29c2,0 4,2 4,4 0,2 -2,4 -4,4 -2,0 -4,-2 -4,-4 0,-2 2,-4 4,-4zm0 -5c-11,0 -20,9 -20,20 0,11 9,20 20,20 11,0 20,-9 20,-20 0,-11 -9,-20 -20,-20z"/>
 </g>
</svg>
