<?xml version="1.0" encoding="UTF-8"?>
<!DOCTYPE svg PUBLIC "-//W3C//DTD SVG 1.1//EN" "http://www.w3.org/Graphics/SVG/1.1/DTD/svg11.dtd">
<!-- Creator: CorelDRAW X6 -->
<svg xmlns="http://www.w3.org/2000/svg" xml:space="preserve" width="100%" height="100%" version="1.1" style="shape-rendering:geometricPrecision; text-rendering:geometricPrecision; image-rendering:optimizeQuality; fill-rule:evenodd; clip-rule:evenodd"
viewBox="0 0 107 107"
 xmlns:xlink="http://www.w3.org/1999/xlink">
 <defs>
  <style type="text/css">
   <![CDATA[
    .fil0 {fill:#009FED;fill-rule:nonzero}
   ]]>
  </style>
 </defs>
 <g id="Layer_x0020_1">
  <metadata id="CorelCorpID_0Corel-Layer"/>
  <path class="fil0" d="M53 97c-24,0 -44,-20 -44,-44 0,-24 20,-44 44,-44 24,0 44,20 44,44 0,24 -20,44 -44,44zm0 -97c-29,0 -53,24 -53,53 0,29 24,53 53,53 29,0 53,-24 53,-53 0,-29 -24,-53 -53,-53zm14 81c0,0 -26,0 -26,0 0,0 0,-7 0,-7 0,0 2,0 2,0 4,0 4,-2 4,-2 0,0 0,-18 0,-18 0,0 0,-3 -4,-2 0,0 -2,0 -2,0 0,0 0,-7 0,-7 0,0 20,0 20,0 0,0 0,28 0,28 0,0 0,3 4,2 0,0 2,0 2,0 0,0 0,7 0,7zm-13 -58c4,0 8,3 8,8 0,4 -3,8 -8,8 -4,0 -8,-3 -8,-8 0,-4 3,-8 8,-8zm0 -9c-22,0 -39,18 -39,39 0,22 18,39 39,39 22,0 39,-18 39,-39 0,-22 -18,-39 -39,-39z"/>
 </g>
</svg>
